<?xml version="1.0" standalone="no"?>
<!DOCTYPE svg PUBLIC "-//W3C//DTD SVG 20010904//EN"
 "http://www.w3.org/TR/2001/REC-SVG-20010904/DTD/svg10.dtd">
<svg version="1.0" xmlns="http://www.w3.org/2000/svg"
 width="300.000000pt" height="150.000000pt" viewBox="0 0 300.000000 150.000000"
 preserveAspectRatio="xMidYMid meet">
<metadata>
Created by potrace 1.10, written by Peter Selinger 2001-2011
</metadata>
<g transform="translate(0.000000,150.000000) scale(0.100000,-0.100000)"
fill="#0a2749" stroke="none">
<path d="M1390 1423 c-16 -25 -35 -62 -41 -81 -15 -46 -7 -138 15 -160 16 -16
17 -13 14 52 -3 76 15 104 26 39 8 -54 40 -100 78 -116 33 -14 48 -13 48 3 0
5 -12 10 -27 12 -22 2 -33 14 -53 53 -22 43 -25 64 -25 148 0 53 -1 97 -3 97
-1 0 -16 -21 -32 -47z"/>
<path d="M388 1443 c-41 -6 -52 -28 -52 -100 0 -84 11 -93 116 -93 66 0 79 3
88 19 5 11 10 27 10 35 0 23 -27 19 -33 -4 -5 -19 -12 -21 -74 -18 l-68 3 0
60 0 60 68 3 c62 3 69 1 74 -18 8 -31 35 -25 31 7 -5 45 -61 61 -160 46z"/>
<path d="M1513 1443 c-13 -2 -30 -14 -38 -26 -20 -28 -20 -116 1 -145 13 -20
24 -22 94 -22 70 0 81 2 94 22 9 12 16 28 16 35 0 21 -31 15 -37 -7 -5 -18
-14 -20 -73 -20 -75 0 -80 4 -80 65 0 61 5 65 80 65 60 0 68 -2 73 -21 3 -12
11 -19 18 -17 21 7 21 23 1 48 -15 18 -30 24 -73 26 -30 1 -64 0 -76 -3z"/>
<path d="M2175 1443 c-43 -11 -55 -33 -55 -98 0 -86 12 -95 122 -95 105 0 113
7 113 96 0 82 -13 95 -96 99 -35 2 -73 1 -84 -2z m138 -43 c5 -4 7 -31 5 -61
l-3 -54 -75 0 c-71 0 -75 1 -84 26 -5 14 -6 42 -2 62 6 32 10 36 44 40 43 4
104 -2 115 -13z"/>
<path d="M590 1345 c0 -78 3 -95 15 -95 11 0 15 11 15 40 l0 40 80 0 80 0 0
-40 c0 -29 4 -40 15 -40 12 0 15 17 15 95 0 78 -3 95 -15 95 -11 0 -15 -11
-15 -40 l0 -40 -80 0 -80 0 0 40 c0 29 -4 40 -15 40 -12 0 -15 -17 -15 -95z"/>
<path d="M850 1356 c0 -56 4 -87 13 -94 19 -16 163 -18 182 -2 21 18 22 180 0
180 -11 0 -15 -18 -17 -77 l-3 -78 -70 0 -70 0 -3 78 c-2 59 -6 77 -17 77 -12
0 -15 -17 -15 -84z"/>
<path d="M1090 1345 c0 -89 1 -95 20 -95 18 0 20 4 14 35 l-6 36 78 -3 79 -3
3 -32 c2 -25 8 -33 23 -33 16 0 18 5 13 27 -4 15 -6 41 -5 58 7 103 4 105
-120 105 l-99 0 0 -95z m190 35 l0 -30 -80 0 -80 0 0 30 0 30 80 0 80 0 0 -30z"/>
<path d="M1710 1345 c0 -90 1 -95 21 -95 19 0 20 4 14 40 l-7 40 81 0 81 0 0
-40 c0 -33 3 -40 20 -40 19 0 20 7 20 95 0 88 -1 95 -20 95 -17 0 -20 -7 -20
-40 l0 -41 -77 3 -78 3 3 38 c2 32 0 37 -18 37 -19 0 -20 -6 -20 -95z"/>
<path d="M2380 1355 c0 -47 0 -88 -1 -92 0 -5 7 -9 15 -11 12 -3 16 6 16 37
l0 41 70 0 c56 0 70 3 70 15 0 12 -14 15 -70 15 -68 0 -70 1 -70 25 0 24 2 25
75 25 60 0 75 3 75 15 0 12 -17 15 -90 15 l-90 0 0 -85z"/>
<path d="M1525 1208 c9 -42 13 -48 30 -48 19 0 31 -26 39 -85 13 -90 23 -106
43 -62 9 19 7 30 -9 55 -11 18 -17 32 -14 32 12 0 80 -38 114 -63 l32 -24 -35
-24 c-22 -15 -35 -32 -35 -46 0 -27 12 -29 34 -8 8 8 18 15 22 15 4 0 16 8 26
17 19 17 20 16 39 -7 74 -93 111 -234 92 -347 -12 -69 -62 -180 -94 -209 -17
-15 -20 -14 -51 9 -95 72 -242 109 -357 89 -78 -13 -168 -50 -220 -89 l-34
-26 -24 29 c-35 43 -69 121 -83 189 -22 106 2 220 70 325 l32 50 46 -32 c26
-17 49 -33 51 -34 2 -2 -15 -39 -38 -84 -70 -134 -66 -215 15 -297 39 -39 74
-56 74 -35 0 4 -20 27 -45 51 -74 72 -79 130 -21 259 20 45 34 87 30 93 -3 6
9 40 27 75 21 42 29 68 23 74 -7 7 -16 -8 -28 -40 l-18 -49 -34 22 c-18 12
-34 25 -34 29 0 4 15 17 33 29 17 12 37 27 42 34 13 16 65 28 65 16 0 -5 -5
-13 -10 -16 -7 -4 -7 -11 -2 -18 5 -7 12 -34 15 -60 2 -27 10 -54 17 -60 10
-10 11 -1 7 42 -5 44 -3 59 14 82 15 22 18 37 13 65 -6 34 -8 36 -38 30 -64
-13 -161 -70 -222 -130 -101 -101 -151 -234 -141 -375 23 -323 343 -537 649
-432 74 25 133 64 193 126 244 251 145 676 -187 797 -47 17 -62 28 -80 59 -26
48 -42 50 -33 7z m-81 -858 c1 -64 -3 -100 -9 -100 -27 0 -125 132 -125 168 0
12 118 44 129 35 2 -1 4 -48 5 -103z m144 88 c40 -10 43 -13 37 -37 -10 -40
-69 -124 -98 -140 -15 -8 -28 -12 -29 -10 -2 2 -2 50 0 105 4 114 -6 106 90
82z m-318 -62 c0 -6 14 -34 31 -60 16 -27 28 -50 26 -52 -7 -7 -132 74 -132
85 0 14 56 52 67 45 4 -3 8 -11 8 -18z m455 -2 l30 -24 -25 -20 c-40 -31 -120
-72 -120 -62 0 5 6 14 13 20 7 6 24 34 37 62 13 27 26 50 29 50 3 -1 20 -12
36 -26z"/>
<path d="M1383 998 c-6 -35 -9 -65 -7 -66 8 -10 33 48 36 82 5 64 -17 52 -29
-16z"/>
<path d="M1660 1033 c0 -28 10 -53 21 -53 14 0 11 34 -6 56 -14 19 -14 19 -15
-3z"/>
<path d="M136 985 c-50 -18 -94 -60 -107 -105 -6 -21 -9 -120 -7 -252 l3 -217
30 -31 c61 -64 63 -65 368 -68 293 -4 357 2 408 39 51 36 58 63 61 228 l3 151
-227 0 -228 0 0 -65 0 -65 135 0 135 0 0 -44 c0 -77 1 -77 -263 -74 l-232 3
-3 159 c-2 108 1 163 9 172 9 11 72 14 340 14 l329 0 0 85 0 85 -357 0 c-278
-1 -367 -4 -397 -15z m485 -24 l227 -1 4 -29 c9 -62 16 -61 -308 -61 -313 0
-339 -4 -364 -49 -5 -11 -10 -86 -10 -170 0 -144 1 -151 24 -178 l24 -28 218
-3 c229 -3 261 1 289 42 8 11 15 42 15 67 0 39 -5 51 -26 68 -23 18 -41 21
-124 21 -76 0 -99 3 -103 14 -12 31 19 37 194 34 l174 -3 2 -112 c3 -214 -25
-230 -423 -227 -252 1 -311 11 -349 55 -34 41 -38 73 -33 276 4 198 14 233 74
263 27 13 169 27 239 23 17 -1 132 -2 256 -2z"/>
<path d="M2075 655 l0 -346 385 3 385 3 44 25 c78 44 82 60 79 325 -3 220 -4
231 -25 261 -48 68 -56 69 -483 72 l-385 3 0 -346z m786 287 c69 -39 74 -53
77 -261 4 -222 -3 -258 -55 -298 l-36 -28 -360 -3 c-287 -2 -362 0 -368 10
-10 16 -12 422 -3 525 6 63 9 72 28 75 11 2 170 2 353 1 299 -2 334 -4 364
-21z"/>
<path d="M2262 847 c-21 -22 -22 -33 -22 -193 0 -131 3 -175 14 -190 19 -25
88 -30 333 -24 249 6 233 -8 233 216 l0 162 -31 26 -31 26 -237 0 c-235 0
-238 0 -259 -23z m516 -34 c8 -12 12 -62 12 -164 0 -141 -1 -149 -22 -163 -19
-13 -61 -16 -255 -16 l-232 0 -3 181 c-2 99 -2 181 -1 182 1 1 111 1 245 -1
212 -2 245 -5 256 -19z"/>
<path d="M1737 923 c-3 -5 1 -38 8 -73 30 -137 15 -234 -46 -301 -21 -24 -39
-47 -39 -51 0 -20 31 -4 67 35 52 57 68 113 60 225 -7 106 -33 192 -50 165z"/>
<path d="M1491 823 c11 -21 19 -55 19 -78 1 -35 2 -37 12 -20 6 11 15 22 19
25 10 7 -31 89 -51 100 -16 9 -16 7 1 -27z"/>
<path d="M1452 818 c0 -13 -7 -45 -16 -73 -24 -70 -5 -131 22 -71 17 39 25 93
18 131 -8 39 -23 48 -24 13z"/>
<path d="M1395 749 c-44 -70 -95 -189 -93 -213 5 -53 25 -40 31 20 7 64 26 98
28 48 1 -22 4 -17 14 24 7 28 20 70 29 92 14 36 7 57 -9 29z"/>
<path d="M1538 713 c-5 -74 10 -133 33 -133 7 0 10 14 7 35 -2 19 -1 35 3 35
13 0 32 -62 33 -106 1 -55 20 -52 24 5 3 46 -28 111 -54 111 -8 0 -15 5 -15
10 -1 6 -3 19 -4 30 -1 11 -3 25 -4 30 -3 22 -21 8 -23 -17z"/>
<path d="M921 186 c-171 -58 -173 -63 -36 -73 57 -4 115 1 204 16 68 11 156
20 195 20 l71 -2 -60 -7 c-33 -4 -112 -19 -175 -33 -63 -14 -151 -29 -195 -33
-74 -6 -78 -5 -60 9 14 12 3 10 -40 -6 l-60 -22 328 -3 c206 -1 327 -6 327
-12 0 -6 23 -10 50 -10 28 0 50 4 50 10 0 6 121 11 328 12 l327 3 -60 22 c-43
16 -54 18 -40 6 18 -14 14 -15 -60 -9 -44 4 -132 19 -195 33 -63 14 -140 29
-170 33 l-55 7 67 2 c36 0 122 -8 190 -20 123 -21 267 -22 303 -2 10 6 -36 26
-145 62 -88 29 -165 51 -170 49 -6 -2 46 -23 115 -48 69 -25 125 -48 125 -52
0 -10 -127 -1 -252 18 -54 8 -122 14 -150 14 -61 0 -148 -21 -184 -44 -22 -15
-26 -15 -48 0 -36 23 -123 44 -184 44 -28 0 -96 -6 -150 -14 -125 -19 -252
-28 -252 -18 0 4 44 22 98 41 129 46 163 60 137 60 -11 0 -90 -24 -174 -53z
m477 -92 c2 -1 -22 -1 -53 -1 -30 1 -55 4 -55 8 0 12 73 15 90 4 8 -5 16 -10
18 -11z m257 6 c6 -9 -81 -7 -91 2 -4 4 14 7 40 6 25 0 48 -4 51 -8z"/>
</g>
</svg>
